<svg xmlns="http://www.w3.org/2000/svg" width="150" height="50" viewBox="0 0 150 50">
  <g fill="none" fill-rule="evenodd">
    <rect width="150" height="50" fill="#474542"/>
    <rect width="150" height="50" fill="#474542"/>
    <path fill="#FFF" fill-rule="nonzero" d="M25.9774128,30 L25.9774128,29.775 L24.8524128,29.775 L24.8524128,25.932 C24.8524128,25.554 24.8944128,25.131 24.9784128,24.663 C25.0624128,24.195 25.2004128,23.7465 25.3924128,23.3175 C25.5844128,22.8885 25.8424128,22.533 26.1664128,22.251 C26.4904128,21.969 26.8894128,21.828 27.3634128,21.828 C27.6874128,21.828 27.9214128,21.942 28.0654128,22.17 C28.2094128,22.398 28.2994128,22.71 28.3354128,23.106 C28.3714128,23.502 28.3894128,23.952 28.3894128,24.456 L28.3894128,24.456 L28.3894128,29.775 L27.2554128,29.775 L27.2554128,30 L31.1164128,30 L31.1164128,29.775 L29.9824128,29.775 L29.9824128,25.932 C29.9824128,25.554 30.0214128,25.131 30.0994128,24.663 C30.1774128,24.195 30.3064128,23.7465 30.4864128,23.3175 C30.6664128,22.8885 30.9169128,22.533 31.2379128,22.251 C31.5589128,21.969 31.9624128,21.828 32.4484128,21.828 C32.7724128,21.828 33.0094128,21.942 33.1594128,22.17 C33.3094128,22.398 33.4054128,22.71 33.4474128,23.106 C33.4894128,23.502 33.5104128,23.952 33.5104128,24.456 L33.5104128,24.456 L33.5104128,29.775 L32.3764128,29.775 L32.3764128,30 L36.2464128,30 L36.2464128,29.775 L35.1124128,29.775 L35.1124128,24.249 C35.1124128,23.727 35.0389128,23.2635 34.8919128,22.8585 C34.7449128,22.4535 34.4959128,22.134 34.1449128,21.9 C33.7939128,21.666 33.3154128,21.549 32.7094128,21.549 C32.1034128,21.549 31.6099128,21.699 31.2289128,21.999 C30.8479128,22.299 30.5569128,22.6845 30.3559128,23.1555 C30.1549128,23.6265 30.0184128,24.1155 29.9464128,24.6225 L29.982,24.41 L29.9824128,24.249 C29.9824128,23.814 29.9344961,23.419625 29.8386628,23.065875 L29.7754128,22.8585 C29.6374128,22.4535 29.3974128,22.134 29.0554128,21.9 C28.7134128,21.666 28.2394128,21.549 27.6334128,21.549 C27.0334128,21.549 26.5429128,21.699 26.1619128,21.999 C25.7809128,22.299 25.4854128,22.6845 25.2754128,23.1555 C25.0654128,23.6265 24.9199128,24.1155 24.8389128,24.6225 L24.852,24.549 L24.8524128,21.72 L22.1164128,21.72 L22.1164128,21.945 L23.2594128,21.945 L23.2594128,29.775 L22.1164128,29.775 L22.1164128,30 L25.9774128,30 Z M41.8937233,30.18 C42.8777233,30.18 43.6697233,29.9295 44.2697233,29.4285 C44.8697233,28.9275 45.2867233,28.305 45.5207233,27.561 L45.5207233,27.561 L45.2597233,27.561 C45.0377233,28.227 44.6522233,28.788 44.1032233,29.244 C43.5542233,29.7 42.8507233,29.928 41.9927233,29.928 C41.5187233,29.928 41.1272233,29.814 40.8182233,29.586 C40.5092233,29.358 40.2677233,29.052 40.0937233,28.668 C39.9197233,28.284 39.7982233,27.849 39.7292233,27.363 C39.6602233,26.877 39.6257233,26.376 39.6257233,25.86 C39.6257233,25.731 39.6277858,25.6029375 39.6319108,25.4758125 L39.641,25.284 L45.4307233,25.284 C45.4307233,24.7234286 45.34256,24.1937143 45.1662335,23.6948571 L45.0707233,23.448 C44.8307233,22.878 44.4467233,22.419 43.9187233,22.071 C43.3907233,21.723 42.6857233,21.549 41.8037233,21.549 C41.0237233,21.549 40.3307233,21.72 39.7247233,22.062 C39.1187233,22.404 38.6402233,22.8975 38.2892233,23.5425 C37.9382233,24.1875 37.7627233,24.96 37.7627233,25.86 C37.7627233,26.76 37.9457233,27.5325 38.3117233,28.1775 C38.6777233,28.8225 39.1712233,29.3175 39.7922233,29.6625 C40.4132233,30.0075 41.1137233,30.18 41.8937233,30.18 Z M39.6814108,24.7243125 L39.7247233,24.357 C39.7907233,23.871 39.9032233,23.433 40.0622233,23.043 C40.2212233,22.653 40.4417233,22.3425 40.7237233,22.1115 C41.0057233,21.8805 41.3657233,21.765 41.8037233,21.765 C42.1937233,21.765 42.5027233,21.8745 42.7307233,22.0935 C42.9587233,22.3125 43.1297233,22.5915 43.2437233,22.9305 C43.3577233,23.2695 43.4327233,23.6295 43.4687233,24.0105 C43.5047233,24.3915 43.5227233,24.741 43.5227233,25.059 L43.5227233,25.059 L39.653,25.06 L39.6814108,24.7243125 L39.6814108,24.7243125 Z M51.5405362,30 L51.5405362,29.775 L50.0465362,29.775 L50.0465362,16.5 L46.9325362,16.5 L46.9325362,16.725 L48.4355362,16.725 L48.4355362,29.775 L46.9325362,29.775 L46.9325362,30 L51.5405362,30 Z M61.3147213,30.171 C62.0767213,30.171 62.7007213,29.8995 63.1867213,29.3565 C63.6727213,28.8135 63.9937213,28.065 64.1497213,27.111 L64.1497213,27.111 L64.1497213,30 L66.9127213,30 L66.9127213,29.775 L65.7787213,29.775 L65.7787213,16.5 L63.0157213,16.5 L63.0157213,16.725 L64.1497213,16.725 L64.1497213,24.618 C63.9937213,23.664 63.6727213,22.914 63.1867213,22.368 C62.7007213,21.822 62.0767213,21.549 61.3147213,21.549 C60.6727213,21.549 60.0667213,21.7215 59.4967213,22.0665 C58.9267213,22.4115 58.4617213,22.9065 58.1017213,23.5515 C57.7417213,24.1965 57.5617213,24.969 57.5617213,25.869 C57.5617213,26.769 57.7417213,27.54 58.1017213,28.182 C58.4617213,28.824 58.9267213,29.316 59.4967213,29.658 C60.0667213,30 60.6727213,30.171 61.3147213,30.171 Z M61.6117213,29.829 C61.1257213,29.829 60.7207213,29.6655 60.3967213,29.3385 C60.0727213,29.0115 59.8297213,28.5525 59.6677213,27.9615 C59.5057213,27.3705 59.4247213,26.673 59.4247213,25.869 C59.4247213,25.065 59.5057213,24.3645 59.6677213,23.7675 C59.8297213,23.1705 60.0727213,22.707 60.3967213,22.377 C60.7207213,22.047 61.1257213,21.882 61.6117213,21.882 C62.0677213,21.882 62.4877213,22.0365 62.8717213,22.3455 C63.2557213,22.6545 63.5647213,23.1045 63.7987213,23.6955 C64.0327213,24.2865 64.1497213,25.011 64.1497213,25.869 C64.1497213,26.721 64.0327213,27.441 63.7987213,28.029 C63.5647213,28.617 63.2557213,29.064 62.8717213,29.37 C62.4877213,29.676 62.0677213,29.829 61.6117213,29.829 Z M70.1939074,18.516 C70.4939074,18.516 70.7489074,18.4095 70.9589074,18.1965 C71.1689074,17.9835 71.2739074,17.727 71.2739074,17.427 C71.2739074,17.133 71.1689074,16.8795 70.9589074,16.6665 C70.7489074,16.4535 70.4939074,16.347 70.1939074,16.347 C69.8999074,16.347 69.6464074,16.4535 69.4334074,16.6665 C69.2204074,16.8795 69.1139074,17.133 69.1139074,17.427 C69.1139074,17.727 69.2204074,17.9835 69.4334074,18.1965 C69.6464074,18.4095 69.8999074,18.516 70.1939074,18.516 Z M72.1379074,30 L72.1379074,29.775 L70.9949074,29.775 L70.9949074,21.72 L68.2409074,21.72 L68.2409074,21.945 L69.3749074,21.945 L69.3749074,29.775 L68.2409074,29.775 L68.2409074,30 L72.1379074,30 Z M80.4127801,30.18 C80.8267801,30.18 81.1882801,30.081 81.4972801,29.883 C81.8062801,29.685 82.0387801,29.433 82.1947801,29.127 L82.1947801,29.127 L82.0867801,28.929 C81.9667801,29.187 81.7987801,29.3955 81.5827801,29.5545 C81.3667801,29.7135 81.1687801,29.793 80.9887801,29.793 C80.7487801,29.793 80.5912801,29.7195 80.5162801,29.5725 C80.4412801,29.4255 80.4037801,29.25 80.4037801,29.046 L80.4037801,29.046 L80.4037801,24.519 C80.4037801,24.033 80.3362801,23.565 80.2012801,23.115 C80.0662801,22.665 79.7947801,22.296 79.3867801,22.008 C78.9787801,21.72 78.3607801,21.576 77.5327801,21.576 C77.1247801,21.576 76.7272801,21.6195 76.3402801,21.7065 C75.9532801,21.7935 75.6067801,21.9165 75.3007801,22.0755 C74.9947801,22.2345 74.7517801,22.4265 74.5717801,22.6515 C74.3917801,22.8765 74.3017801,23.13 74.3017801,23.412 C74.3017801,23.736 74.3962801,23.982 74.5852801,24.15 C74.7742801,24.318 75.0067801,24.402 75.2827801,24.402 C75.5287801,24.402 75.7612801,24.321 75.9802801,24.159 C76.1992801,23.997 76.3087801,23.736 76.3087801,23.376 C76.3087801,23.07 76.2022801,22.8345 75.9892801,22.6695 C75.7762801,22.5045 75.5407801,22.422 75.2827801,22.422 C75.2427801,22.422 75.2033218,22.4244583 75.1644051,22.429375 L75.117,22.439 L75.1589401,22.40562 C75.2026201,22.37358 75.2482801,22.3428 75.2959201,22.31328 L75.4447801,22.2285 C75.7027801,22.0935 75.9847801,21.9915 76.2907801,21.9225 C76.5967801,21.8535 76.8997801,21.819 77.1997801,21.819 C77.6797801,21.819 78.0337801,21.954 78.2617801,22.224 C78.4897801,22.494 78.6382801,22.836 78.7072801,23.25 C78.7762801,23.664 78.8107801,24.087 78.8107801,24.519 L78.8107801,24.519 L78.81,25.41 L77.6407801,25.41 C76.4692801,25.41 75.5473426,25.5978021 74.8749676,25.9734063 L74.6977801,26.0805 C74.0137801,26.5275 73.6717801,27.153 73.6717801,27.957 C73.6717801,28.641 73.9042801,29.1825 74.3692801,29.5815 C74.8342801,29.9805 75.4567801,30.18 76.2367801,30.18 C76.8487801,30.18 77.3542801,30.0345 77.7532801,29.7435 C78.1522801,29.4525 78.4507801,29.0475 78.6487801,28.5285 C78.7053515,28.3802143 78.7538413,28.2251939 78.7942495,28.0634388 L78.81,27.991 L78.8107801,28.623 C78.8107801,28.9727143 78.8658822,29.2552041 78.9760862,29.4704694 L79.0357801,29.5725 C79.1857801,29.7975 79.3822801,29.955 79.6252801,30.045 C79.8682801,30.135 80.1307801,30.18 80.4127801,30.18 Z M76.9465301,29.774875 L76.7767801,29.784 C76.4587801,29.784 76.2052801,29.685 76.0162801,29.487 C75.8272801,29.289 75.6907801,29.0415 75.6067801,28.7445 C75.5227801,28.4475 75.4807801,28.149 75.4807801,27.849 C75.4807801,27.519 75.5512801,27.1815 75.6922801,26.8365 C75.8332801,26.4915 76.0612801,26.2005 76.3762801,25.9635 C76.6912801,25.7265 77.1127801,25.608 77.6407801,25.608 L77.6407801,25.608 L78.81,25.608 L78.8107801,26.724 C78.8107801,27.33825 78.7361317,27.8560313 78.5868348,28.2773438 L78.5182801,28.452 C78.3232801,28.902 78.0697801,29.2365 77.7577801,29.4555 C77.4457801,29.6745 77.1187801,29.784 76.7767801,29.784 L76.9465301,29.774875 Z M86.7397801,30 L86.7397801,29.775 L85.6147801,29.775 L85.6147801,25.932 C85.6147801,25.554 85.6567801,25.131 85.7407801,24.663 C85.8247801,24.195 85.9627801,23.7465 86.1547801,23.3175 C86.3467801,22.8885 86.6047801,22.533 86.9287801,22.251 C87.2527801,21.969 87.6517801,21.828 88.1257801,21.828 C88.4497801,21.828 88.6837801,21.942 88.8277801,22.17 C88.9717801,22.398 89.0617801,22.71 89.0977801,23.106 C89.1337801,23.502 89.1517801,23.952 89.1517801,24.456 L89.1517801,24.456 L89.1517801,29.775 L88.0177801,29.775 L88.0177801,30 L91.8787801,30 L91.8787801,29.775 L90.7447801,29.775 L90.7447801,25.932 C90.7447801,25.554 90.7837801,25.131 90.8617801,24.663 C90.9397801,24.195 91.0687801,23.7465 91.2487801,23.3175 C91.4287801,22.8885 91.6792801,22.533 92.0002801,22.251 C92.3212801,21.969 92.7247801,21.828 93.2107801,21.828 C93.5347801,21.828 93.7717801,21.942 93.9217801,22.17 C94.0717801,22.398 94.1677801,22.71 94.2097801,23.106 C94.2517801,23.502 94.2727801,23.952 94.2727801,24.456 L94.2727801,24.456 L94.2727801,29.775 L93.1387801,29.775 L93.1387801,30 L97.0087801,30 L97.0087801,29.775 L95.8747801,29.775 L95.8747801,24.249 C95.8747801,23.727 95.8012801,23.2635 95.6542801,22.8585 C95.5072801,22.4535 95.2582801,22.134 94.9072801,21.9 C94.5562801,21.666 94.0777801,21.549 93.4717801,21.549 C92.8657801,21.549 92.3722801,21.699 91.9912801,21.999 C91.6102801,22.299 91.3192801,22.6845 91.1182801,23.1555 C90.9172801,23.6265 90.7807801,24.1155 90.7087801,24.6225 L90.744,24.41 L90.7447801,24.249 C90.7447801,23.814 90.6968635,23.419625 90.6010301,23.065875 L90.5377801,22.8585 C90.3997801,22.4535 90.1597801,22.134 89.8177801,21.9 C89.4757801,21.666 89.0017801,21.549 88.3957801,21.549 C87.7957801,21.549 87.3052801,21.699 86.9242801,21.999 C86.5432801,22.299 86.2477801,22.6845 86.0377801,23.1555 C85.8277801,23.6265 85.6822801,24.1155 85.6012801,24.6225 L85.614,24.553 L85.6147801,21.72 L82.8787801,21.72 L82.8787801,21.945 L84.0217801,21.945 L84.0217801,29.775 L82.8787801,29.775 L82.8787801,30 L86.7397801,30 Z M105.194091,30.18 C105.608091,30.18 105.969591,30.081 106.278591,29.883 C106.587591,29.685 106.820091,29.433 106.976091,29.127 L106.976091,29.127 L106.868091,28.929 C106.748091,29.187 106.580091,29.3955 106.364091,29.5545 C106.148091,29.7135 105.950091,29.793 105.770091,29.793 C105.530091,29.793 105.372591,29.7195 105.297591,29.5725 C105.222591,29.4255 105.185091,29.25 105.185091,29.046 L105.185091,29.046 L105.185091,24.519 C105.185091,24.033 105.117591,23.565 104.982591,23.115 C104.847591,22.665 104.576091,22.296 104.168091,22.008 C103.760091,21.72 103.142091,21.576 102.314091,21.576 C101.906091,21.576 101.508591,21.6195 101.121591,21.7065 C100.734591,21.7935 100.388091,21.9165 100.082091,22.0755 C99.7760906,22.2345 99.5330906,22.4265 99.3530906,22.6515 C99.1730906,22.8765 99.0830906,23.13 99.0830906,23.412 C99.0830906,23.736 99.1775906,23.982 99.3665906,24.15 C99.5555906,24.318 99.7880906,24.402 100.064091,24.402 C100.310091,24.402 100.542591,24.321 100.761591,24.159 C100.980591,23.997 101.090091,23.736 101.090091,23.376 C101.090091,23.07 100.983591,22.8345 100.770591,22.6695 C100.557591,22.5045 100.322091,22.422 100.064091,22.422 C100.024091,22.422 99.9846323,22.4244583 99.9457156,22.429375 L99.899,22.439 L99.9402506,22.40562 C99.9839306,22.37358 100.029591,22.3428 100.077231,22.31328 L100.226091,22.2285 C100.484091,22.0935 100.766091,21.9915 101.072091,21.9225 C101.378091,21.8535 101.681091,21.819 101.981091,21.819 C102.461091,21.819 102.815091,21.954 103.043091,22.224 C103.271091,22.494 103.419591,22.836 103.488591,23.25 C103.557591,23.664 103.592091,24.087 103.592091,24.519 L103.592091,24.519 L103.592,25.41 L102.422091,25.41 C101.250591,25.41 100.328653,25.5978021 99.6562781,25.9734063 L99.4790906,26.0805 C98.7950906,26.5275 98.4530906,27.153 98.4530906,27.957 C98.4530906,28.641 98.6855906,29.1825 99.1505906,29.5815 C99.6155906,29.9805 100.238091,30.18 101.018091,30.18 C101.630091,30.18 102.135591,30.0345 102.534591,29.7435 C102.933591,29.4525 103.232091,29.0475 103.430091,28.5285 C103.486662,28.3802143 103.535152,28.2251939 103.57556,28.0634388 L103.592,27.987 L103.592091,28.623 C103.592091,28.9727143 103.647193,29.2552041 103.757397,29.4704694 L103.817091,29.5725 C103.967091,29.7975 104.163591,29.955 104.406591,30.045 C104.649591,30.135 104.912091,30.18 105.194091,30.18 Z M101.727841,29.774875 L101.558091,29.784 C101.240091,29.784 100.986591,29.685 100.797591,29.487 C100.608591,29.289 100.472091,29.0415 100.388091,28.7445 C100.304091,28.4475 100.262091,28.149 100.262091,27.849 C100.262091,27.519 100.332591,27.1815 100.473591,26.8365 C100.614591,26.4915 100.842591,26.2005 101.157591,25.9635 C101.472591,25.7265 101.894091,25.608 102.422091,25.608 L102.422091,25.608 L103.592,25.608 L103.592091,26.724 C103.592091,27.33825 103.517442,27.8560313 103.368145,28.2773438 L103.299591,28.452 C103.104591,28.902 102.851091,29.2365 102.539091,29.4555 C102.227091,29.6745 101.900091,29.784 101.558091,29.784 L101.727841,29.774875 Z M111.521091,30 L111.521091,29.775 L110.396091,29.775 L110.396091,25.968 C110.396091,25.578 110.439591,25.146 110.526591,24.672 C110.613591,24.198 110.760591,23.745 110.967591,23.313 C111.174591,22.881 111.459591,22.5255 111.822591,22.2465 C112.185591,21.9675 112.643091,21.828 113.195091,21.828 C113.525091,21.828 113.768091,21.945 113.924091,22.179 C114.080091,22.413 114.179091,22.731 114.221091,23.133 C114.263091,23.535 114.284091,23.988 114.284091,24.492 L114.284091,24.492 L114.284091,29.775 L113.159091,29.775 L113.159091,30 L117.029091,30 L117.029091,29.775 L115.886091,29.775 L115.886091,24.249 C115.886091,23.727 115.823091,23.2635 115.697091,22.8585 C115.571091,22.4535 115.329591,22.134 114.972591,21.9 C114.615591,21.666 114.089091,21.549 113.393091,21.549 C112.727091,21.549 112.187091,21.702 111.773091,22.008 C111.359091,22.314 111.042591,22.704 110.823591,23.178 C110.604591,23.652 110.453091,24.144 110.369091,24.654 L110.396,24.513 L110.396091,21.72 L107.660091,21.72 L107.660091,21.945 L108.803091,21.945 L108.803091,29.775 L107.660091,29.775 L107.660091,30 L111.521091,30 Z M122.289401,30.171 C123.051401,30.171 123.675401,29.8995 124.161401,29.3565 C124.647401,28.8135 124.968401,28.065 125.124401,27.111 L125.124401,27.111 L125.124401,30 L127.887401,30 L127.887401,29.775 L126.753401,29.775 L126.753401,16.5 L123.990401,16.5 L123.990401,16.725 L125.124401,16.725 L125.124401,24.618 C124.968401,23.664 124.647401,22.914 124.161401,22.368 C123.675401,21.822 123.051401,21.549 122.289401,21.549 C121.647401,21.549 121.041401,21.7215 120.471401,22.0665 C119.901401,22.4115 119.436401,22.9065 119.076401,23.5515 C118.716401,24.1965 118.536401,24.969 118.536401,25.869 C118.536401,26.769 118.716401,27.54 119.076401,28.182 C119.436401,28.824 119.901401,29.316 120.471401,29.658 C121.041401,30 121.647401,30.171 122.289401,30.171 Z M122.586401,29.829 C122.100401,29.829 121.695401,29.6655 121.371401,29.3385 C121.047401,29.0115 120.804401,28.5525 120.642401,27.9615 C120.480401,27.3705 120.399401,26.673 120.399401,25.869 C120.399401,25.065 120.480401,24.3645 120.642401,23.7675 C120.804401,23.1705 121.047401,22.707 121.371401,22.377 C121.695401,22.047 122.100401,21.882 122.586401,21.882 C123.042401,21.882 123.462401,22.0365 123.846401,22.3455 C124.230401,22.6545 124.539401,23.1045 124.773401,23.6955 C125.007401,24.2865 125.124401,25.011 125.124401,25.869 C125.124401,26.721 125.007401,27.441 124.773401,28.029 C124.539401,28.617 124.230401,29.064 123.846401,29.37 C123.462401,29.676 123.042401,29.829 122.586401,29.829 Z"/>
  </g>
</svg>
